{"title":"Third Person - 2013 (No Cinavia) 1080p","uid":11146124,"size":3183374344,"categoryP":"video","categoryS":"hd___movies","magnet":"?xt=urn:btih:af777bb840c6f9b516ae57771fa13c8165c312d2&amp;dn=Third+Person+-+2013+%28No+Cinavia%29+1080p&amp;tr=udp%3A%2F%2Ftracker.openbittorrent.com%3A80&amp;tr=udp%3A%2F%2Fopen.demonii.com%3A1337&amp;tr=udp%3A%2F%2Ftracker.coppersurfer.tk%3A6969&amp;tr=udp%3A%2F%2Fexodus.desync.com%3A6969","seeders":1,"leechers":1,"uploader":"AlienMethod","files":7,"time":1412263412,"description":"Encode/x264\nCinavia Removed/CinExHD\n2-Channel AAC@192kbps (audio 1)\nDS5.1 AC3@448kbps (audio 2)\n\n\n&quot;Three interlocking love stories involving three couples in three cities: Rome, Paris, and New York.&quot;\n\nVideo\nID : 1\nFormat : AVC\nFormat/Info : Advanced Video Codec\nFormat profile : &lt;a class=&quot;__cf_email__&quot; href=&quot;/cdn-cgi/l/email-protection&quot; data-cfemail=&quot;7b33121c133b374f554b&quot;&gt;[email&amp;#160;protected]&lt;/a&gt;&lt;script cf-hash='f9e31' type=&quot;text/javascript&quot;&gt;\n/* &lt;![CDATA[ */!function(){try{var t=&quot;currentScript&quot;in document?document.currentScript:function(){for(var t=document.getElementsByTagName(&quot;script&quot;),e=t.length;e--;)if(t[e].getAttribute(&quot;cf-hash&quot;))return t[e]}();if(t&amp;&amp;t.previousSibling){var e,r,n,i,c=t.previousSibling,a=c.getAttribute(&quot;data-cfemail&quot;);if(a){for(e=&quot;&quot;,r=parseInt(a.substr(0,2),16),n=2;a.length-n;n+=2)i=parseInt(a.substr(n,2),16)^r,e+=String.fromCharCode(i);e=document.createTextNode(e),c.parentNode.replaceChild(e,c)}}}catch(u){}}();/* ]]&gt; */&lt;/script&gt;\nFormat settings, CABAC : Yes\nFormat settings, ReFrames : 3 frames\nCodec ID : avc1\nCodec ID/Info : Advanced Video Coding\nDuration : 2h 16mn\nBit rate : 2 446 Kbps\nMaximum bit rate : 10.9 Mbps\nWidth : 1 920 pixels\nHeight : 816 pixels\nDisplay aspect ratio : 2.35:1\nFrame rate mode : Constant\nFrame rate : 23.976 fps\nColor space : YUV\nChroma subsampling : 4:2:0\nBit depth : 8 bits\nScan type : Progressive\nBits/(Pixel*Frame) : 0.065\nStream size : 2.34 GiB (79%)\nTitle : ThirdPerson(CinEx)_track1.h264\nWriting library : x264 core 142 r2479 dd79a61\nEncoded date : UTC 2014-10-02 04:16:54\nTagged date : UTC 2014-10-02 04:17:11\nColor primaries : BT.709\nTransfer characteristics : BT.709\nMatrix coefficients : BT.709\n\nAudio #1\nID : 2\nFormat : AAC\nFormat/Info : Advanced Audio Codec\nFormat profile : LC\nCodec ID : 40\nDuration : 2h 16mn\nBit rate mode : Variable\nBit rate : 205 Kbps\nMaximum bit rate : 252 Kbps\nChannel(s) : 2 channels\nChannel positions : Front: L R\nSampling rate : 48.0 KHz\nCompression mode : Lossy\nStream size : 201 MiB (7%)\nTitle : ThirdPerson(CinEx)AAC.m4a\nEncoded date : UTC 2014-10-02 04:17:07\nTagged date : UTC 2014-10-02 04:17:11\n\nAudio #2\nID : 3\nFormat : AC-3\nFormat/Info : Audio Coding 3\nMode extension : CM (complete main)\nFormat settings, Endianness : Big\nCodec ID : ac-3\nDuration : 2h 16mn\nBit rate mode : Constant\nBit rate : 448 Kbps\nChannel(s) : 6 channels\nChannel positions : Front: L C R, Side: L R, LFE\nSampling rate : 48.0 KHz\nBit depth : 16 bits\nCompression mode : Lossy\nStream size : 438 MiB (14%)\nTitle : ThirdPerson(CinEx)AC3.ac3\nEncoded date : UTC 2014-10-02 04:17:08\nTagged date : UTC 2014-10-02 04:17:11\n\nText #1\nID : 4\nFormat : Timed Text\nCodec ID : tx3g\nDuration : 17s 0ms\nDuration_FirstFrame : -3s 0ms\nBit rate mode : Variable\nBit rate : 25 bps\nStream size : 53.0 Bytes (0%)\nTitle : Third.Person.2013(NoCinavia)1080p.srt\nEncoded date : UTC 2014-10-02 04:17:11\nTagged date : UTC 2014-10-02 04:17:11\n\nText #2\nID : 5\nFormat : Timed Text\nCodec ID : tx3g\nDuration : 2h 10mn\nBit rate mode : Variable\nBit rate : 40 bps\nStream size : 38.6 KiB (0%)\nTitle : Third.Person.2013.English.srt\nEncoded date : UTC 2014-10-02 04:17:11\nTagged date : UTC 2014-10-02 04:17:11\n\nm/ AM m/\n","torrent":{"xt":"urn:btih:af777bb840c6f9b516ae57771fa13c8165c312d2","amp;dn":"Third+Person+-+2013+%28No+Cinavia%29+1080p","amp;tr":["udp%3A%2F%2Ftracker.openbittorrent.com%3A80","udp%3A%2F%2Fopen.demonii.com%3A1337","udp%3A%2F%2Ftracker.coppersurfer.tk%3A6969","udp%3A%2F%2Fexodus.desync.com%3A6969"],"infoHash":"af777bb840c6f9b516ae57771fa13c8165c312d2","infoHashBuffer":{"type":"Buffer","data":[175,119,123,184,64,198,249,181,22,174,87,119,31,161,60,129,101,195,18,210]},"announce":[],"urlList":[]}}